<?xml version="1.0" encoding="UTF-8" standalone="no"?>
<svg
   xmlns:dc="http://purl.org/dc/elements/1.1/"
   xmlns:cc="http://creativecommons.org/ns#"
   xmlns:rdf="http://www.w3.org/1999/02/22-rdf-syntax-ns#"
   xmlns:svg="http://www.w3.org/2000/svg"
   xmlns="http://www.w3.org/2000/svg"
   xmlns:sodipodi="http://sodipodi.sourceforge.net/DTD/sodipodi-0.dtd"
   xmlns:inkscape="http://www.inkscape.org/namespaces/inkscape"
   width="24"
   height="24"
   viewBox="0 0 24 24"
   version="1.1"
   id="svg4"
   sodipodi:docname="fullscreen.svg"
   inkscape:version="0.92.3 (2405546, 2018-03-11)">
  <metadata
     id="metadata10">
    <rdf:RDF>
      <cc:Work
         rdf:about="">
        <dc:format>image/svg+xml</dc:format>
        <dc:type
           rdf:resource="http://purl.org/dc/dcmitype/StillImage" />
        <dc:title></dc:title>
      </cc:Work>
    </rdf:RDF>
  </metadata>
  <defs
     id="defs8" />
  <sodipodi:namedview
     pagecolor="#ffffff"
     bordercolor="#666666"
     borderopacity="1"
     objecttolerance="10"
     gridtolerance="10"
     guidetolerance="10"
     inkscape:pageopacity="0"
     inkscape:pageshadow="2"
     inkscape:window-width="1853"
     inkscape:window-height="1025"
     id="namedview6"
     showgrid="false"
     inkscape:zoom="22.627417"
     inkscape:cx="6.060512"
     inkscape:cy="10.421667"
     inkscape:window-x="67"
     inkscape:window-y="27"
     inkscape:window-maximized="1"
     inkscape:current-layer="svg4" />
  <path
     d="M24 9h-2v-5h-7v-2h9v7zm-9 13v-2h7v-5h2v7h-9zm-15-7h2v5h7v2h-9v-7zm9-13v2h-7v5h-2v-7h9z"
     id="path2" />
  <path
     style="fill:#ffffff;stroke-width:0.04419417"
     d="M 0.03242672,5.5040575 V 2.0348149 H 4.4960383 8.9596498 V 3.0070867 3.9793585 H 5.4683101 1.9769704 V 6.4763293 8.9733001 H 1.0046985 0.03242672 Z"
     id="path3818"
     inkscape:connector-curvature="0" />
  <path
     style="fill:#ffffff;stroke-width:0.04419417"
     d="M 22.030445,6.4873779 22.019028,4.0014556 18.51664,3.9901409 15.014252,3.9788263 V 3.0068206 2.0348149 h 4.485708 4.485709 v 3.4692426 3.4692426 h -0.971904 -0.971904 z"
     id="path3820"
     inkscape:connector-curvature="0" />
  <path
     style="fill:#ffffff;stroke-width:0.04419417"
     d="m 15.014252,20.994381 v -0.972005 l 3.502388,-0.01131 3.502388,-0.01132 0.01142,-2.485922 0.01142,-2.485922 h 0.971904 0.971904 v 3.469243 3.469242 H 19.49996 15.014252 Z"
     id="path3822"
     inkscape:connector-curvature="0" />
  <path
     style="fill:#ffffff;stroke-width:0.04419417"
     d="M 0.03242672,18.497145 V 15.027902 H 1.0046985 1.9769704 v 2.496971 2.496971 h 3.4913397 3.4913397 v 0.972271 0.972272 H 4.4960383 0.03242672 Z"
     id="path3824"
     inkscape:connector-curvature="0" />
</svg>
